<svg width="40" height="40" fill="none" xmlns="http://www.w3.org/2000/svg"><circle cx="20" cy="20" r="20" fill="#E6BA78"/><circle cx="20" cy="20" r="20" fill="url(#a)" fill-opacity=".7"/><path d="M22.015 14.575a.712.712 0 0 0-.836.567.719.719 0 0 0 .564.84 2.885 2.885 0 0 1 2.287 2.293.716.716 0 0 0 .838.568.72.72 0 0 0 .564-.843 4.312 4.312 0 0 0-3.417-3.425Z" fill="#624A29"/><path d="M21.963 11.673a.681.681 0 0 0-.52.147.71.71 0 0 0-.27.487.716.716 0 0 0 .631.791 5.76 5.76 0 0 1 5.105 5.116.714.714 0 1 0 1.42-.16c-.378-3.381-2.995-6.005-6.366-6.38Z" fill="#624A29"/><path fill-rule="evenodd" clip-rule="evenodd" d="M19.193 20.81c3.324 3.324 4.078-.521 6.195 1.594 2.04 2.04 3.213 2.449.628 5.033-.324.26-2.381 3.392-9.612-3.837-7.232-7.23-4.103-9.29-3.842-9.613 2.591-2.592 2.993-1.412 5.033.627 2.117 2.116-1.726 2.873 1.598 6.196Z" fill="#624A29"/><defs><linearGradient id="a" x1="-1.509" y1="43.396" x2="50.109" y2="14.888" gradientUnits="userSpaceOnUse"><stop stop-color="#FAEBD7"/><stop offset=".254" stop-color="#D8B78F"/><stop offset=".652" stop-color="#DEBF9B"/><stop offset="1" stop-color="#FAEBD7"/></linearGradient></defs></svg>