<svg width="20" height="20" fill="none" xmlns="http://www.w3.org/2000/svg"><path d="M12.015 4.575a.712.712 0 0 0-.836.567.719.719 0 0 0 .564.841 2.885 2.885 0 0 1 2.286 2.292.716.716 0 0 0 .839.568.72.72 0 0 0 .564-.843 4.312 4.312 0 0 0-3.417-3.425" fill="#81899B"/><path d="M11.963 1.673a.681.681 0 0 0-.52.147.71.71 0 0 0-.27.487.716.716 0 0 0 .63.791 5.76 5.76 0 0 1 5.106 5.116.714.714 0 1 0 1.42-.16c-.379-3.381-2.995-6.005-6.366-6.38" fill="#81899B"/><path fill-rule="evenodd" clip-rule="evenodd" d="M9.193 10.81c3.324 3.324 4.079-.521 6.195 1.594 2.04 2.04 3.213 2.449.628 5.033-.324.26-2.381 3.391-9.612-3.837C-.828 6.37 2.3 4.31 2.562 3.987c2.591-2.592 2.993-1.413 5.033.627C9.712 6.73 5.87 7.487 9.193 10.81Z" fill="#81899B"/></svg>