<svg width="54" height="54" fill="none" xmlns="http://www.w3.org/2000/svg"><circle cx="27" cy="27" r="27" fill="#F1F4F8"/><path fill-rule="evenodd" clip-rule="evenodd" d="M23.878 21.379c0 1.866-1.54 3.38-3.44 3.38-1.898 0-3.438-1.514-3.438-3.38C17 19.513 18.54 18 20.439 18c1.9 0 3.439 1.513 3.439 3.379Zm11.615-1.48c.831 0 1.507.663 1.507 1.48s-.676 1.48-1.507 1.48h-6.575c-.832 0-1.508-.663-1.508-1.48s.676-1.48 1.508-1.48h6.575ZM18.508 30.957h6.575c.833 0 1.508.664 1.508 1.481 0 .817-.675 1.482-1.508 1.482h-6.575c-.832 0-1.508-.665-1.508-1.482s.676-1.481 1.508-1.481Zm15.053 4.82c1.9 0 3.439-1.513 3.439-3.379 0-1.867-1.539-3.38-3.439-3.38-1.899 0-3.439 1.514-3.439 3.38 0 1.866 1.54 3.379 3.44 3.379Z" fill="#76859A"/></svg>