<svg width="16" height="16" fill="none" xmlns="http://www.w3.org/2000/svg"><path d="M.5 8a7.5 7.5 0 1 1 15 0 7.5 7.5 0 0 1-15 0Z" stroke="#fff"/><path d="M7.673 12c-.584 0-.876-.254-.876-.761 0-.185.04-.41.12-.673l.816-3.044c.04-.137.06-.254.06-.351 0-.273-.126-.41-.379-.41-.318 0-.723.205-1.215.615a.1.1 0 0 1-.06.014c-.053 0-.093-.014-.12-.044-.026-.039-.026-.073 0-.102.479-.4.904-.693 1.276-.878a2.568 2.568 0 0 1 1.115-.278c.585 0 .877.239.877.717 0 .146-.033.341-.1.585l-.816 3.176c-.04.146-.06.268-.06.366 0 .253.113.38.338.38.226 0 .611-.185 1.156-.556a.134.134 0 0 1 .08-.03c.04 0 .072.02.1.06.026.029.019.058-.02.087-.452.39-.857.678-1.216.864A2.427 2.427 0 0 1 7.673 12Zm1.315-7.507c-.332 0-.59-.069-.777-.205a.668.668 0 0 1-.279-.57.59.59 0 0 1 .28-.513C8.41 3.068 8.668 3 8.987 3s.564.068.737.205a.603.603 0 0 1 .26.512.687.687 0 0 1-.26.57c-.173.137-.418.206-.737.206Z" fill="#fff"/></svg>