<svg width="36" height="26" fill="none" xmlns="http://www.w3.org/2000/svg"><path d="M4.869 0h30.71v21.602L31.149 26H0V4.807L4.869 0Z" fill="url(#a)"/><path d="m4.105 5.934 2.332 1.105v13.265l-2.332 1.111v.21h4.29v-15.9h-4.29v.209Zm6.5 15.684h4.311v-.203l-2.353-1.105V7.045l2.353-1.105v-.21h-4.311v15.89Zm19.545-2.673a5.788 5.788 0 0 1-2.053 1.768 6.455 6.455 0 0 1-3.065.69 7.174 7.174 0 0 1-3.772-.949 6.11 6.11 0 0 1-2.387-2.685 9.407 9.407 0 0 1-.819-4.053 9.822 9.822 0 0 1 .779-4.039 5.95 5.95 0 0 1 2.351-2.763 6.311 6.311 0 0 1 3.578-.95c1.898 0 3.36.455 4.383 1.367a6.76 6.76 0 0 1 2.065 3.446h.242l-.346-4.041a16.448 16.448 0 0 0-3.23-.988 15.591 15.591 0 0 0-2.847-.271A12.014 12.014 0 0 0 19.8 6.54a8.097 8.097 0 0 0-3.433 2.948 7.75 7.75 0 0 0-1.198 4.262 7.462 7.462 0 0 0 1.226 4.204 8.125 8.125 0 0 0 3.426 2.894 11.754 11.754 0 0 0 5.077 1.044 15.147 15.147 0 0 0 6.218-1.26l.359-4.043h-.242a7.011 7.011 0 0 1-1.082 2.355Z" fill="#202020"/><defs><linearGradient id="a" x1="0" y1="25.974" x2="35.115" y2="-.576" gradientUnits="userSpaceOnUse"><stop stop-color="#FAEBD7"/><stop offset=".313" stop-color="#D8B78F"/><stop offset=".479" stop-color="#DEBF9B"/><stop offset="1" stop-color="#FAEBD7"/></linearGradient></defs></svg>