<svg width="295" height="40" fill="none" xmlns="http://www.w3.org/2000/svg"><path d="M7.437 0h46.907v33.038l-6.766 6.726H0V7.35L7.437 0Z" fill="url(#a)"/><path d="m7.29 8.64 3.445 1.65v19.808l-3.445 1.66v.312h6.337V8.327H7.29v.313Zm9.6 23.42h6.37v-.303l-3.477-1.65V10.299l3.477-1.65v-.313h-6.37V32.06Zm28.87-3.991a8.578 8.578 0 0 1-3.032 2.64 9.447 9.447 0 0 1-4.526 1.03 10.506 10.506 0 0 1-5.573-1.417 9.093 9.093 0 0 1-3.526-4.01 14.178 14.178 0 0 1-1.208-6.052 14.808 14.808 0 0 1 1.15-6.03 8.861 8.861 0 0 1 3.473-4.127 9.246 9.246 0 0 1 5.285-1.42c2.804 0 4.961.681 6.473 2.043a10.115 10.115 0 0 1 3.051 5.145h.358l-.512-6.034a24.105 24.105 0 0 0-4.77-1.475 22.789 22.789 0 0 0-4.206-.405 17.582 17.582 0 0 0-7.727 1.59 11.997 11.997 0 0 0-5.07 4.401 11.666 11.666 0 0 0-1.77 6.365 11.232 11.232 0 0 0 1.811 6.277 12.037 12.037 0 0 0 5.061 4.322 17.201 17.201 0 0 0 7.5 1.558 22.165 22.165 0 0 0 9.185-1.88l.53-6.038h-.358a10.526 10.526 0 0 1-1.598 3.517Z" fill="#202020"/><path d="m68.26 12.096 2.372.873v14.332l-2.371.877v.477h6.698v-.474l-2.414-.88V12.97l2.387-.873v-.474H68.26v.474Zm20.357 15.607H79.38l11.218-15.556-.027-.52h-8.648l-4.127-.273-.051.049-.435 4.346.54.024 2.082-3.209h8.12L76.886 28.14l.051.51h9.676l4.14.27.05-.045.435-4.355-.54-.024-2.082 3.208Zm15.234-6.903a9.1 9.1 0 0 1-1.098-.132v-.057a6.74 6.74 0 0 0 3.418-1.636 4.127 4.127 0 0 0 1.273-3.146 3.69 3.69 0 0 0-.691-2.226 4.432 4.432 0 0 0-2.03-1.468 8.989 8.989 0 0 0-3.238-.52h-8.05v.475l2.375.873v14.332l-2.374.877v.483h6.671v-.474l-2.387-.877V12.567h3.204c1.555 0 2.684.268 3.386.804.702.537 1.054 1.381 1.056 2.534 0 1.4-.398 2.422-1.192 3.064-.795.642-2.054.97-3.778.982h-1.53l.04.933h1.33c.703 0 1.249-.018 1.636-.057l4.767 7.828h3.756v-.45l-2.13-.75-4.414-6.655Zm16.929-9.446-2.649.535v.471l1.134.828-5.669 14.056-2.16.922v.489H117v-.486l-2.269-.946 1.569-4.06h7.235l1.662 4.153-2.266.862v.477h6.511v-.474l-2.226-.877-6.436-15.95Zm-4.112 10.854 3.246-7.96 3.216 7.966-6.462-.006Zm26.041 5.49h-7.302v-7.273h4.257l1.093 1.894h.528v-4.802h-.528l-1.093 1.974h-4.257v-6.903h6.617l1.81 1.978.501-.024-.329-3.172-2.03.273h-10.862v.474l2.374.873v14.332l-2.374.877v.456h13.879l.356-3.245-.501-.024-2.139 2.312Zm15.93-15.608 2.281.97-5.102 13.46-4.993-13.55 2.383-.901v-.462h-6.643v.462l2.226.873 6.035 15.695h1.318l5.905-15.608 2.175-.957v-.474h-5.585v.492Zm15.137 1.762c.316.009.624-.098.866-.3a.945.945 0 0 0 .335-.75.966.966 0 0 0-.335-.754 1.392 1.392 0 0 0-1.729 0 .985.985 0 0 0-.335.753.948.948 0 0 0 .335.75c.24.205.547.314.863.307v-.006Zm.923 4.886.145-1.765-.486-.39-3.388.6v.475l1.976.948v8.848l-2.293.72v.481h6.367v-.474l-2.321-.72v-8.723Zm17.117 1.48a3.557 3.557 0 0 0-.507-1.894 3.446 3.446 0 0 0-1.424-1.29 4.596 4.596 0 0 0-2.088-.463 6.132 6.132 0 0 0-2.598.57 8.91 8.91 0 0 0-2.293 1.525h-.199l.121-1.8-.356-.301-3.298.6v.475l1.979.948v8.866l-2.308.72v.481h6.354v-.474l-2.293-.709V19.67a8.467 8.467 0 0 1 1.982-1.501 4.64 4.64 0 0 1 2.287-.645 2.713 2.713 0 0 1 1.496.398 2.69 2.69 0 0 1 1.03 1.15c.249.525.373 1.1.362 1.681v6.702l-2.293.72v.481h6.366v-.474l-2.308-.72-.012-7.243Zm10.258-2.852 1.635.745-3.282 7.93-3.202-7.93 1.687-.745v-.474h-4.903v.474l1.276.733 4.42 10.556h.725l4.405-10.544 1.33-.745v-.474h-4.088l-.003.474Zm15.719 4.923a6.578 6.578 0 0 0-.624-2.888 4.934 4.934 0 0 0-1.811-2.065 5.15 5.15 0 0 0-2.836-.765 5.951 5.951 0 0 0-3.089.816 5.773 5.773 0 0 0-2.164 2.29 7.125 7.125 0 0 0-.781 3.392 6.233 6.233 0 0 0 .73 3.059 5.182 5.182 0 0 0 2.058 2.07c.93.508 1.978.763 3.038.742a6.507 6.507 0 0 0 2.972-.663 7.142 7.142 0 0 0 2.233-1.741l-.658-.6a8.508 8.508 0 0 1-1.81 1.39 4.218 4.218 0 0 1-2.064.504c-1.485 0-2.603-.462-3.355-1.384-.752-.923-1.128-2.223-1.126-3.902v-.25l9.287-.005Zm-8.188-3.539c.603-.84 1.545-1.26 2.827-1.26a3.248 3.248 0 0 1 1.81.492 3.15 3.15 0 0 1 1.159 1.377c.28.654.417 1.36.401 2.071l-7.262.238a6.173 6.173 0 0 1 1.065-2.918Zm17.149 4.415a20.849 20.849 0 0 0-2.015-1.035l-.489-.225a13.714 13.714 0 0 1-1.509-.793c-.35-.218-.657-.5-.905-.828a1.756 1.756 0 0 1-.335-1.054 1.548 1.548 0 0 1 .604-1.302c.412-.317 1.05-.475 1.913-.475a8.41 8.41 0 0 1 1.737.202l.145.26c.451.84.785 1.521 1.002 2.048h.501l.555-2.723a8.924 8.924 0 0 0-1.708-.465 10.395 10.395 0 0 0-1.891-.186 7.951 7.951 0 0 0-2.414.34 3.74 3.74 0 0 0-1.675 1.005 2.311 2.311 0 0 0-.603 1.627c-.016.56.155 1.11.486 1.563.334.44.753.81 1.234 1.087.638.366 1.296.698 1.97.993l.579.261a16.3 16.3 0 0 1 1.509.769c.372.211.702.49.974.82.248.311.381.698.377 1.095a1.565 1.565 0 0 1-.778 1.456c-.519.308-1.297.462-2.335.462a5.457 5.457 0 0 1-2.112-.3 72.652 72.652 0 0 1-1.068-2.507h-.604l-.645 2.909c.605.262 1.24.451 1.891.564a13.87 13.87 0 0 0 2.565.22c1.502 0 2.697-.277 3.584-.83a2.638 2.638 0 0 0 1.331-2.38 2.239 2.239 0 0 0-.534-1.461 5.023 5.023 0 0 0-1.337-1.129v.012Zm9.694 4.436a2.878 2.878 0 0 1-1.146.244 1.99 1.99 0 0 1-1.391-.433 1.791 1.791 0 0 1-.468-1.377v-8.248h3.995v-.9h-4.019v-2.864h-.688l-1.252 2.602-1.593.462v.688h1.81v8.329c0 .972.263 1.687.785 2.149.522.462 1.267.693 2.235.693 1.149 0 2.247-.462 3.295-1.387l-.54-.567a4.38 4.38 0 0 1-1.023.597v.012Zm16.691.244c-1.442 0-2.523-.486-3.243-1.456-.72-.97-1.081-2.316-1.081-4.037a5.73 5.73 0 0 1 .574-2.668 3.879 3.879 0 0 1 1.599-1.67 5.023 5.023 0 0 1 3.086-.5c.17.018.338.054.501.105.439.783.835 1.59 1.186 2.416l.196.426h.634l.672-3.197a10.227 10.227 0 0 0-1.885-.492 12.16 12.16 0 0 0-2.112-.207 6.909 6.909 0 0 0-3.319.81 6.023 6.023 0 0 0-2.375 2.303 6.737 6.737 0 0 0-.869 3.445 6.133 6.133 0 0 0 .737 3.047 5.14 5.14 0 0 0 2.063 2.04 6.21 6.21 0 0 0 3.018.724 6.57 6.57 0 0 0 2.999-.681 6.868 6.868 0 0 0 2.223-1.723l-.661-.6c-1.293 1.268-2.607 1.903-3.943 1.903v.012Zm9.655-15.374.145-1.882-.486-.402-3.126.546v.651l1.714.769v15.301l-2.293.72v.481h6.366v-.474l-2.32-.72V12.47Zm15.825 6.201.133-1.69-.477-.381-3.385.6v.487l1.976.936v7.504a6.972 6.972 0 0 1-1.871 1.326 5.093 5.093 0 0 1-2.32.58 3.032 3.032 0 0 1-1.569-.396 2.624 2.624 0 0 1-1.035-1.114 3.639 3.639 0 0 1-.362-1.66V18.66l.13-1.69-.474-.381-3.388.6v.487l1.979.936v6.768a3.382 3.382 0 0 0 .534 1.9c.357.541.858.971 1.448 1.243a4.756 4.756 0 0 0 2.052.432 7.486 7.486 0 0 0 2.734-.528 6.118 6.118 0 0 0 2.169-1.354l.262 1.882 3.099-.558v-.378l-1.635-.6v-8.747Zm15.689.741a5.045 5.045 0 0 0-1.97-2.077 5.837 5.837 0 0 0-2.993-.747 4.885 4.885 0 0 0-2.333.6 6.207 6.207 0 0 0-1.885 1.52h-.079v-6.367l.13-1.87-.356-.3-3.268.804v.393l1.738.769v14.926a4.435 4.435 0 0 0 2.112 1.384c.976.312 1.993.48 3.017.498a6.892 6.892 0 0 0 3.54-.87 5.808 5.808 0 0 0 2.259-2.35 6.924 6.924 0 0 0 .779-3.278 6.496 6.496 0 0 0-.694-3.047l.003.012Zm-1.997 6.303a3.976 3.976 0 0 1-1.542 1.777 4.43 4.43 0 0 1-2.308.6 4.685 4.685 0 0 1-1.937-.431 3.097 3.097 0 0 1-1.476-1.345v-6.684a9.117 9.117 0 0 1 1.786-1.534 3.966 3.966 0 0 1 2.167-.573 3.403 3.403 0 0 1 1.985.6 4.007 4.007 0 0 1 1.376 1.8c.356.915.527 1.89.501 2.87a6.82 6.82 0 0 1-.555 2.905l.003.015Z" fill="#fff"/><defs><linearGradient id="a" x1="0" y1="39.723" x2="53.685" y2="-.814" gradientUnits="userSpaceOnUse"><stop stop-color="#FAEBD7"/><stop offset=".313" stop-color="#D8B78F"/><stop offset=".479" stop-color="#DEBF9B"/><stop offset="1" stop-color="#FAEBD7"/></linearGradient></defs></svg>