<svg width="175" height="24" fill="none" xmlns="http://www.w3.org/2000/svg"><path d="M4.412 0h27.826v19.599l-4.014 3.99H0V4.36L4.412 0Z" fill="url(#a)"/><path d="m4.325 5.125 2.043.98v11.75l-2.043.984v.186h3.759V4.94h-3.76v.185ZM10.02 19.02h3.778v-.18l-2.062-.98V6.11l2.062-.979v-.185H10.02V19.02Zm17.126-2.368a5.089 5.089 0 0 1-1.799 1.567 5.606 5.606 0 0 1-2.685.61 6.233 6.233 0 0 1-3.305-.84 5.394 5.394 0 0 1-2.092-2.379 8.41 8.41 0 0 1-.717-3.59 8.783 8.783 0 0 1 .682-3.578 5.256 5.256 0 0 1 2.06-2.447 5.485 5.485 0 0 1 3.136-.843c1.663 0 2.943.404 3.84 1.212a6.002 6.002 0 0 1 1.81 3.052h.212l-.304-3.58a14.3 14.3 0 0 0-2.83-.874 13.516 13.516 0 0 0-2.495-.24 10.43 10.43 0 0 0-4.583.942 7.117 7.117 0 0 0-3.008 2.611 6.92 6.92 0 0 0-1.05 3.776 6.664 6.664 0 0 0 1.074 3.724 7.14 7.14 0 0 0 3.002 2.564 10.21 10.21 0 0 0 4.45.924c1.878.02 3.738-.36 5.448-1.115l.314-3.582h-.212a6.244 6.244 0 0 1-.948 2.086Zm13.348-9.476 1.407.518v8.502l-1.407.52v.283h3.973v-.282l-1.432-.521V7.694l1.416-.518v-.282h-3.957v.282Zm12.076 9.258h-5.48l6.654-9.228-.016-.308h-5.13l-2.448-.162-.03.028-.259 2.578.32.015 1.236-1.904h4.816l-6.622 9.24.03.302h5.74l2.456.16.03-.026.258-2.584-.32-.014-1.235 1.903Zm9.036-4.095a5.406 5.406 0 0 1-.651-.078v-.034a3.999 3.999 0 0 0 2.028-.97 2.46 2.46 0 0 0 .755-1.867 2.193 2.193 0 0 0-.41-1.32 2.634 2.634 0 0 0-1.204-.871 5.332 5.332 0 0 0-1.92-.308h-4.776v.28l1.409.52v8.501l-1.409.52V17h3.957v-.282l-1.416-.52V7.456h1.901c.923 0 1.592.16 2.009.477.416.318.625.82.626 1.503 0 .83-.236 1.437-.707 1.818s-1.218.575-2.24.582h-.908l.023.554h.79c.416 0 .74-.01.97-.034L63.26 17h2.229v-.267l-1.264-.445-2.618-3.948ZM71.65 6.736l-1.571.317v.28l.673.49-3.363 8.339-1.282.547v.29h3.3v-.289l-1.345-.56.93-2.41h4.292l.986 2.465-1.344.51V17h3.863v-.282l-1.321-.52-3.818-9.461Zm-2.44 6.438 1.926-4.722 1.908 4.726-3.833-.004Zm15.449 3.257h-4.332v-4.315h2.526l.648 1.124h.313v-2.849H83.5l-.648 1.172h-2.526V7.468h3.925l1.074 1.173.297-.014-.195-1.882-1.204.162h-6.444v.281l1.409.518v8.502l-1.409.52v.27h8.234l.21-1.924-.296-.014-1.27 1.37Zm9.45-9.26 1.353.576-3.026 7.986-2.963-8.04 1.414-.534v-.274h-3.94v.274l1.32.519 3.58 9.31h.782l3.502-9.259 1.29-.568V6.88h-3.312v.292Zm8.98 1.046a.763.763 0 0 0 .513-.178.56.56 0 0 0 .199-.445.573.573 0 0 0-.199-.447.826.826 0 0 0-1.025 0 .573.573 0 0 0-.199.447.558.558 0 0 0 .199.445.758.758 0 0 0 .512.182v-.004Zm.547 2.899.086-1.047-.288-.232-2.01.357v.28l1.172.563v5.25l-1.36.427v.285h3.777v-.282l-1.377-.427v-5.174Zm10.154.878a2.107 2.107 0 0 0-.301-1.124 2.045 2.045 0 0 0-.845-.765 2.722 2.722 0 0 0-1.238-.275 3.635 3.635 0 0 0-1.541.339 5.26 5.26 0 0 0-1.36.904h-.119l.072-1.068-.211-.178-1.956.356v.281l1.174.563v5.26l-1.37.427v.285h3.77v-.282l-1.36-.42v-4.63a4.996 4.996 0 0 1 1.175-.89 2.754 2.754 0 0 1 1.357-.382 1.606 1.606 0 0 1 1.498.918c.148.312.222.653.215.998v3.976l-1.36.427v.285h3.776v-.282l-1.369-.427-.007-4.296Zm6.085-1.692.97.442-1.947 4.704-1.899-4.704 1.001-.442v-.281h-2.909v.281l.757.435 2.622 6.262h.43l2.613-6.255.789-.442v-.281h-2.425l-.002.281Zm9.325 2.92a3.9 3.9 0 0 0-.37-1.713 2.934 2.934 0 0 0-1.074-1.225 3.053 3.053 0 0 0-1.682-.454 3.532 3.532 0 0 0-1.833.485 3.427 3.427 0 0 0-1.284 1.358 4.237 4.237 0 0 0-.463 2.012 3.7 3.7 0 0 0 .433 1.814c.28.518.704.944 1.221 1.23.552.3 1.173.451 1.802.439a3.859 3.859 0 0 0 1.763-.394 4.233 4.233 0 0 0 1.324-1.032l-.39-.356c-.319.321-.68.599-1.074.824a2.5 2.5 0 0 1-1.224.3c-.88 0-1.544-.275-1.99-.822-.446-.547-.669-1.319-.668-2.314v-.148l5.509-.004Zm-4.857-2.099c.358-.499.917-.748 1.677-.748.379-.01.753.091 1.074.292.304.2.543.484.687.817.166.388.248.807.238 1.229l-4.308.14c.06-.62.277-1.216.632-1.73Zm10.173 2.62a12.445 12.445 0 0 0-1.195-.615l-.29-.134a8.091 8.091 0 0 1-.895-.47 1.992 1.992 0 0 1-.537-.491 1.04 1.04 0 0 1-.199-.625.923.923 0 0 1 .358-.773c.245-.188.623-.281 1.135-.281a4.97 4.97 0 0 1 1.031.12l.086.154c.267.497.465.902.594 1.214h.297l.329-1.615a5.292 5.292 0 0 0-1.013-.276 6.164 6.164 0 0 0-1.122-.11 4.715 4.715 0 0 0-1.432.201 2.216 2.216 0 0 0-.993.597c-.241.263-.369.61-.358.965-.009.332.092.658.288.927.198.262.447.48.732.645.379.217.769.414 1.169.59l.343.154c.307.137.605.289.895.456.221.126.417.29.578.486.147.185.226.414.224.65a.924.924 0 0 1-.462.863c-.307.183-.769.275-1.385.275a3.238 3.238 0 0 1-1.253-.178 43.506 43.506 0 0 1-.633-1.487h-.358l-.383 1.725c.359.156.736.268 1.122.335.502.09 1.011.134 1.521.13.892 0 1.6-.164 2.127-.491a1.568 1.568 0 0 0 .789-1.412 1.331 1.331 0 0 0-.317-.867 2.978 2.978 0 0 0-.793-.67v.007Zm5.751 2.63a1.71 1.71 0 0 1-.68.145 1.18 1.18 0 0 1-.825-.256 1.07 1.07 0 0 1-.278-.818v-4.893h2.37v-.534h-2.384V8.32h-.408l-.743 1.543-.945.274v.408h1.074v4.941c0 .577.156 1 .465 1.275.31.274.752.411 1.327.411.681 0 1.332-.274 1.954-.822l-.32-.337a2.63 2.63 0 0 1-.607.355v.007Zm9.901.145c-.855 0-1.497-.288-1.924-.864-.427-.575-.641-1.374-.641-2.394a3.413 3.413 0 0 1 .34-1.583c.208-.418.539-.764.949-.99a2.981 2.981 0 0 1 1.831-.298c.101.012.2.033.297.063.261.464.495.943.704 1.433l.116.253h.376l.399-1.896a6.081 6.081 0 0 0-1.119-.292 7.202 7.202 0 0 0-1.253-.123 4.095 4.095 0 0 0-1.968.48 3.568 3.568 0 0 0-1.409 1.366 3.998 3.998 0 0 0-.516 2.044 3.64 3.64 0 0 0 .437 1.807c.283.513.708.933 1.224 1.211.551.292 1.167.44 1.79.43a3.893 3.893 0 0 0 1.779-.405 4.061 4.061 0 0 0 1.319-1.022l-.391-.356c-.768.753-1.547 1.129-2.34 1.129v.007Zm5.728-9.12.086-1.116-.289-.239-1.854.324v.387l1.017.455v9.078l-1.361.427v.285h3.777v-.282l-1.376-.427V7.398Zm9.387 3.679.079-1.003-.283-.226-2.008.356v.289l1.172.555V15.5a4.12 4.12 0 0 1-1.109.787c-.425.223-.897.34-1.377.344a1.795 1.795 0 0 1-.93-.235 1.551 1.551 0 0 1-.614-.66 2.151 2.151 0 0 1-.215-.985v-3.68l.077-1.003-.281-.226-2.01.356v.289l1.174.555v4.015a2 2 0 0 0 .317 1.127c.211.321.509.576.859.737a2.82 2.82 0 0 0 1.217.257 4.442 4.442 0 0 0 1.622-.314 3.64 3.64 0 0 0 1.287-.803l.155 1.117 1.838-.331v-.225l-.97-.356v-5.188Zm9.307.44a2.985 2.985 0 0 0-1.168-1.233 3.464 3.464 0 0 0-1.776-.443 2.89 2.89 0 0 0-1.383.356c-.429.224-.809.53-1.119.901h-.047V7.322l.077-1.11-.211-.178-1.938.477v.234l1.031.455v8.855c.328.389.764.674 1.253.82a6.255 6.255 0 0 0 1.789.296c.734.02 1.46-.159 2.1-.516a3.458 3.458 0 0 0 1.341-1.394c.311-.6.47-1.268.461-1.944a3.856 3.856 0 0 0-.411-1.808l.001.008Zm-1.184 3.739a2.36 2.36 0 0 1-.915 1.054 2.63 2.63 0 0 1-1.369.356 2.781 2.781 0 0 1-1.149-.257 1.84 1.84 0 0 1-.876-.797v-3.966a5.407 5.407 0 0 1 1.06-.91 2.35 2.35 0 0 1 1.285-.34c.42-.006.832.118 1.178.357.369.27.653.641.816 1.068.211.542.312 1.12.297 1.702a4.05 4.05 0 0 1-.329 1.724l.002.009Z" fill="#202020"/><defs><linearGradient id="a" x1="0" y1="23.565" x2="31.847" y2="-.483" gradientUnits="userSpaceOnUse"><stop stop-color="#FAEBD7"/><stop offset=".313" stop-color="#D8B78F"/><stop offset=".479" stop-color="#DEBF9B"/><stop offset="1" stop-color="#FAEBD7"/></linearGradient></defs></svg>