<svg width="15" height="18" fill="none" xmlns="http://www.w3.org/2000/svg"><path d="M3.75 0C3.059 0 2.5.575 2.5 1.286V9H1.25C.559 9 0 9.575 0 10.286c0 .71.559 1.285 1.25 1.285H2.5v1.286H1.25c-.691 0-1.25.575-1.25 1.286 0 .711.559 1.286 1.25 1.286H2.5v1.285c0 .711.559 1.286 1.25 1.286S5 17.425 5 16.714V15.43h6.25c.691 0 1.25-.575 1.25-1.286 0-.711-.559-1.286-1.25-1.286H5v-1.286h4.375C12.48 11.571 15 8.98 15 5.786S12.48 0 9.375 0H3.75Zm5.625 9H5V2.571h4.375c1.727 0 3.125 1.439 3.125 3.215C12.5 7.562 11.102 9 9.375 9Z" fill="#81899B"/></svg>