<svg width="16" height="22" viewBox="0 0 16 22" fill="none" xmlns="http://www.w3.org/2000/svg">
<path fill-rule="evenodd" clip-rule="evenodd" d="M0 7.93023C0 5.827 0.842854 3.80992 2.34315 2.32271C3.84344 0.835504 5.87827 0 8 0C10.1217 0 12.1566 0.835504 13.6569 2.32271C15.1571 3.80992 16 5.827 16 7.93023V14.0698C16 16.173 15.1571 18.1901 13.6569 19.6773C12.1566 21.1645 10.1217 22 8 22C5.87827 22 3.84344 21.1645 2.34315 19.6773C0.842854 18.1901 0 16.173 0 14.0698V7.93023ZM8 1.53488C6.28893 1.53488 4.64793 2.20868 3.43802 3.40804C2.22811 4.6074 1.54839 6.23408 1.54839 7.93023V14.0698C1.54839 15.7659 2.22811 17.3926 3.43802 18.592C4.64793 19.7913 6.28893 20.4651 8 20.4651C9.71107 20.4651 11.3521 19.7913 12.562 18.592C13.7719 17.3926 14.4516 15.7659 14.4516 14.0698V7.93023C14.4516 6.23408 13.7719 4.6074 12.562 3.40804C11.3521 2.20868 9.71107 1.53488 8 1.53488ZM8 4.06977C8.20533 4.06977 8.40225 4.15062 8.54744 4.29455C8.69263 4.43847 8.77419 4.63367 8.77419 4.83721V8.90698C8.77419 9.11051 8.69263 9.30572 8.54744 9.44964C8.40225 9.59356 8.20533 9.67442 8 9.67442C7.79467 9.67442 7.59775 9.59356 7.45256 9.44964C7.30737 9.30572 7.22581 9.11051 7.22581 8.90698V4.83721C7.22581 4.63367 7.30737 4.43847 7.45256 4.29455C7.59775 4.15062 7.79467 4.06977 8 4.06977Z" fill="#BBC5D3"/>
</svg>
