<svg width="10" height="15" fill="none" xmlns="http://www.w3.org/2000/svg"><path d="m1.722 5.048 2.33-1.63a1.49 1.49 0 0 1 .905-.268c.395.01.777.137 1.094.365.316.229.55.546.67.909.136.408.26.684.372.827.338.435.777.787 1.282 1.03A3.746 3.746 0 0 0 10 6.65v1.4a5.246 5.246 0 0 1-2.172-.468 5.059 5.059 0 0 1-1.756-1.315l-.507 2.768 1.498 1.21 1.617 4.276L7.313 15l-1.484-3.922-2.465-1.992a1.403 1.403 0 0 1-.448-.598 1.35 1.35 0 0 1-.07-.735l.37-2.019-.493.344-1.546 2.05L0 7.305 1.71 5.04l.012.008ZM6 2.8c-.385 0-.755-.148-1.028-.41a1.374 1.374 0 0 1-.426-.99c0-.371.153-.727.426-.99S5.615 0 6 0c.386 0 .756.147 1.029.41.272.263.426.619.426.99s-.154.727-.426.99c-.273.262-.643.41-1.029.41Zm-2.16 9.226-2.337 2.68-1.114-.899 2.164-2.482.542-1.526 1.303 1.05-.558 1.177Z" fill="#76859A"/></svg>