<svg width="44" height="32" fill="none" xmlns="http://www.w3.org/2000/svg"><path d="M44 7c-.674.303-1.5.758-2.48 1.364a39.418 39.418 0 0 0-2.756 2 22.37 22.37 0 0 0-2.48 2.272c-.735.728-1.225 1.394-1.47 2 1.96.182 3.705 1 5.236 2.455 1.592 1.394 2.388 3.363 2.388 5.909 0 1.515-.275 2.849-.827 4a8.527 8.527 0 0 1-2.02 2.818c-.858.727-1.868 1.273-3.032 1.636a11.07 11.07 0 0 1-3.49.546c-1.531 0-2.91-.303-4.134-.91a8.817 8.817 0 0 1-2.94-2.454c-.796-1.09-1.408-2.333-1.837-3.727-.367-1.394-.55-2.909-.55-4.545.06-2.546.55-4.91 1.469-7.091.919-2.243 2.113-4.243 3.582-6a21.962 21.962 0 0 1 5.053-4.455C35.61 1.606 37.539.667 39.499 0l4.5 7ZM20.392 7c-.673.303-1.5.758-2.48 1.364a39.418 39.418 0 0 0-2.756 2 22.37 22.37 0 0 0-2.48 2.272c-.735.728-1.225 1.394-1.47 2 1.96.182 3.705 1 5.236 2.455 1.593 1.394 2.389 3.363 2.389 5.909 0 1.515-.276 2.849-.827 4a8.525 8.525 0 0 1-2.02 2.818c-.858.727-1.869 1.273-3.032 1.636a11.068 11.068 0 0 1-3.49.546c-1.532 0-2.91-.303-4.134-.91a8.817 8.817 0 0 1-2.94-2.454C1.592 27.546.98 26.303.551 24.91.183 23.515 0 22 0 20.364c.061-2.546.55-4.91 1.47-7.091.918-2.243 2.112-4.243 3.582-6a21.963 21.963 0 0 1 5.052-4.455C12.003 1.606 13.932.667 15.891 0l4.501 7Z" fill="#F0CA91"/><path d="M44 7c-.674.303-1.5.758-2.48 1.364a39.418 39.418 0 0 0-2.756 2 22.37 22.37 0 0 0-2.48 2.272c-.735.728-1.225 1.394-1.47 2 1.96.182 3.705 1 5.236 2.455 1.592 1.394 2.388 3.363 2.388 5.909 0 1.515-.275 2.849-.827 4a8.527 8.527 0 0 1-2.02 2.818c-.858.727-1.868 1.273-3.032 1.636a11.07 11.07 0 0 1-3.49.546c-1.531 0-2.91-.303-4.134-.91a8.817 8.817 0 0 1-2.94-2.454c-.796-1.09-1.408-2.333-1.837-3.727-.367-1.394-.55-2.909-.55-4.545.06-2.546.55-4.91 1.469-7.091.919-2.243 2.113-4.243 3.582-6a21.962 21.962 0 0 1 5.053-4.455C35.61 1.606 37.539.667 39.499 0l4.5 7ZM20.392 7c-.673.303-1.5.758-2.48 1.364a39.418 39.418 0 0 0-2.756 2 22.37 22.37 0 0 0-2.48 2.272c-.735.728-1.225 1.394-1.47 2 1.96.182 3.705 1 5.236 2.455 1.593 1.394 2.389 3.363 2.389 5.909 0 1.515-.276 2.849-.827 4a8.525 8.525 0 0 1-2.02 2.818c-.858.727-1.869 1.273-3.032 1.636a11.068 11.068 0 0 1-3.49.546c-1.532 0-2.91-.303-4.134-.91a8.817 8.817 0 0 1-2.94-2.454C1.592 27.546.98 26.303.551 24.91.183 23.515 0 22 0 20.364c.061-2.546.55-4.91 1.47-7.091.918-2.243 2.112-4.243 3.582-6a21.963 21.963 0 0 1 5.052-4.455C12.003 1.606 13.932.667 15.891 0l4.501 7Z" fill="url(#a)" fill-opacity=".5"/><defs><linearGradient id="a" x1="-1.661" y1="34.717" x2="45.337" y2="-.972" gradientUnits="userSpaceOnUse"><stop stop-color="#FAEBD7"/><stop offset=".254" stop-color="#D8B78F"/><stop offset=".652" stop-color="#DEBF9B"/><stop offset="1" stop-color="#FAEBD7"/></linearGradient></defs></svg>