<svg width="33" height="24" fill="none" xmlns="http://www.w3.org/2000/svg"><path d="M33 5.25c-.505.227-1.125.568-1.86 1.023a29.53 29.53 0 0 0-2.067 1.5 16.776 16.776 0 0 0-1.86 1.704c-.551.546-.919 1.046-1.102 1.5 1.47.137 2.778.75 3.927 1.841 1.194 1.046 1.79 2.523 1.79 4.432 0 1.136-.206 2.136-.62 3a6.394 6.394 0 0 1-1.515 2.114c-.643.545-1.4.954-2.273 1.227a8.3 8.3 0 0 1-2.618.409c-1.149 0-2.182-.227-3.1-.682a6.612 6.612 0 0 1-2.205-1.84 9.374 9.374 0 0 1-1.378-2.796c-.276-1.046-.413-2.182-.413-3.41.046-1.908.413-3.681 1.102-5.317a17.015 17.015 0 0 1 2.687-4.5 16.472 16.472 0 0 1 3.789-3.341A20.091 20.091 0 0 1 29.624 0L33 5.25Zm-17.706 0c-.505.227-1.125.568-1.86 1.023-.689.454-1.378.954-2.067 1.5a16.782 16.782 0 0 0-1.86 1.704c-.55.546-.918 1.046-1.102 1.5 1.47.137 2.779.75 3.927 1.841 1.194 1.046 1.791 2.523 1.791 4.432 0 1.136-.207 2.136-.62 3a6.393 6.393 0 0 1-1.515 2.114 6.447 6.447 0 0 1-2.274 1.227A8.3 8.3 0 0 1 7.096 24c-1.148 0-2.182-.227-3.1-.682a6.613 6.613 0 0 1-2.205-1.84 9.374 9.374 0 0 1-1.378-2.796C.138 17.636 0 16.5 0 15.272c.046-1.908.413-3.681 1.102-5.317a17.013 17.013 0 0 1 2.687-4.5 16.472 16.472 0 0 1 3.79-3.341A20.091 20.091 0 0 1 11.918 0l3.375 5.25Z" fill="#1B1F28"/></svg>