<svg width="56" height="40" fill="none" xmlns="http://www.w3.org/2000/svg"><path d="M56 8.75c-.857.379-1.91.947-3.157 1.704a50.169 50.169 0 0 0-3.507 2.5 28.285 28.285 0 0 0-3.157 2.841c-.935.91-1.558 1.743-1.87 2.5 2.494.228 4.715 1.25 6.664 3.069 2.026 1.742 3.04 4.204 3.04 7.386 0 1.894-.351 3.56-1.053 5a10.662 10.662 0 0 1-2.572 3.523c-1.09.909-2.377 1.59-3.858 2.045a14.326 14.326 0 0 1-4.442.682c-1.949 0-3.703-.379-5.261-1.136a11.176 11.176 0 0 1-3.741-3.069c-1.014-1.363-1.793-2.916-2.339-4.659-.467-1.742-.701-3.636-.701-5.681.078-3.182.701-6.137 1.87-8.864 1.17-2.803 2.69-5.303 4.56-7.5a27.802 27.802 0 0 1 6.43-5.568C45.322 2.008 47.777.833 50.271 0L56 8.75Zm-30.046 0c-.857.379-1.91.947-3.157 1.704a50.169 50.169 0 0 0-3.507 2.5 28.285 28.285 0 0 0-3.156 2.841c-.936.91-1.56 1.743-1.871 2.5 2.494.228 4.715 1.25 6.664 3.069 2.026 1.742 3.04 4.204 3.04 7.386 0 1.894-.351 3.56-1.053 5a10.664 10.664 0 0 1-2.572 3.523c-1.09.909-2.377 1.59-3.858 2.045a14.325 14.325 0 0 1-4.442.682c-1.949 0-3.702-.379-5.261-1.136a11.176 11.176 0 0 1-3.741-3.069C2.026 34.432 1.247 32.88.7 31.136.234 29.394 0 27.5 0 25.455c.078-3.182.701-6.137 1.87-8.864 1.17-2.803 2.69-5.303 4.56-7.5a27.803 27.803 0 0 1 6.43-5.568C15.276 2.008 17.731.833 20.226 0l5.728 8.75Z" fill="#fff"/></svg>